<?xml version="1.0" encoding="UTF-8"?>
<!DOCTYPE svg PUBLIC "-//W3C//DTD SVG 1.1//EN" "http://www.w3.org/Graphics/SVG/1.1/DTD/svg11.dtd">
<!-- Creator: CorelDRAW SE -->
<svg xmlns="http://www.w3.org/2000/svg" xml:space="preserve" width="436.08mm" height="391.134mm" version="1.1" style="shape-rendering:geometricPrecision; text-rendering:geometricPrecision; image-rendering:optimizeQuality; fill-rule:evenodd; clip-rule:evenodd"
viewBox="0 0 46910 42075"
 xmlns:xlink="http://www.w3.org/1999/xlink">
 <defs>
  <style type="text/css">
   <![CDATA[
    .fil0 {fill:#E4DED0}
   ]]>
  </style>
 </defs>
 <g id="Vrstva_x0020_1">
  <metadata id="CorelCorpID_0Corel-Layer"/>
  <path class="fil0" d="M34628 41757c-3,-3 -12,-4 -14,-13 -2,-9 -10,-9 -15,-13 13,113 37,71 32,126 -1,9 -20,85 17,145l34 -98c61,67 41,72 126,107 -40,-71 -51,-66 -29,-120l50 61c68,51 108,48 155,123l97 -65c-30,-63 -7,-7 -16,-72 -9,4 -31,17 -36,18l-25 4c-77,-26 -61,-176 -63,-238 -93,-39 -90,-19 -172,-77 20,-40 69,-35 76,-58 1,-6 10,-3 15,-6l-29 -29c-4,-4 -11,-11 -16,-14 -86,-56 -120,53 -186,-119 76,28 51,-28 78,92 43,-37 35,-36 80,-54 4,7 157,180 180,95 1,-6 9,-5 12,-6l37 50c-4,1 -11,2 -13,3 -2,0 -11,2 -13,3l-43 13c-2,-4 -10,4 -15,7 86,36 83,12 172,28 -103,-216 -329,-322 -396,-511l59 -33c6,-1 32,4 37,3 48,-9 131,-94 168,79 139,-64 -36,27 114,-17l-90 -80c-2,-3 -8,-6 -9,-13 -1,-6 -6,-7 -12,-22l103 -27 60 222c99,1 123,4 184,71 6,6 10,79 34,37 3,-5 12,13 19,20 -43,-97 -9,-37 -46,-90 -52,-75 19,42 -40,-42 -55,-79 -36,-36 -35,-156l85 68c88,122 -22,5 55,80l75 -17c-10,-115 -47,-145 -59,-308 -9,-127 -46,-180 -40,-281 -5,5 -12,13 -15,17l-120 -24c-41,128 19,71 -70,99 -67,21 -172,-23 -208,-80l-207 -481c-12,15 -55,66 -52,125 2,35 31,104 41,146l-111 -193c-19,38 -37,-49 -8,61 2,8 19,38 20,31l1 35c-1,-6 -12,9 -17,14l-189 -149 -3 -136c-73,14 -41,8 -105,24 18,-68 16,-45 49,-108 -100,-45 -27,20 -139,-51 18,80 7,44 51,106 -76,-23 -42,-13 -105,-58l53 -108 -65 -91c7,5 17,12 21,15l-182 -311c-21,90 12,97 82,193l62 113c-100,-58 -107,-45 -227,-30 -26,-71 -76,-158 -114,-224 -90,-159 -147,-143 -114,-195 111,80 69,9 139,116 8,12 89,136 98,134 19,-57 -26,-141 -53,-201 56,60 21,69 114,43 -25,-28 -5,4 -47,-55 -41,-57 -152,-224 -246,-289 37,149 80,25 38,179 -67,-91 -36,-108 -130,-155 33,-28 47,-42 88,-28 -23,-150 19,-43 -62,-125l-214 -256c127,6 181,173 259,258 32,34 68,104 101,68 -93,-100 -249,-359 -354,-401 -32,-13 -24,-4 -60,-22 -20,-115 -10,-143 -61,-252 178,70 48,60 131,146 44,44 67,45 97,76 144,153 180,289 358,394 -13,-23 -87,-148 -137,-192 -116,-103 -30,46 -154,-158l-142 -183c-59,-71 -54,-108 -113,-191l121 102c-10,-19 -99,-139 -128,-194l-55 -115c-3,-5 -58,-74 -63,-80 -388,-464 -1219,-1756 -1564,-2311 -248,-400 -50,-261 441,-1223l424 -843c151,-278 281,-571 431,-861 146,-283 308,-534 451,-811 151,-293 235,-594 396,-896 193,-361 471,-1272 -288,-1133 -243,44 -256,-106 -529,61 -364,222 -403,282 -626,636 -148,236 -393,525 -591,703 -276,249 -296,461 -520,743 -311,390 -578,597 -845,1092l-141 251c-33,53 -63,69 -83,147 -106,-41 -47,-14 -118,-66l50 102c-5,5 -12,13 -15,16 -3,3 -10,12 -15,16l-49 37c-35,21 -37,18 -84,32 -95,-148 -143,-185 -89,-276l65 132c32,33 77,52 125,72 -71,-103 -88,-159 -157,-224 -98,-93 -133,-59 -209,-164l-278 -453 80 -30c-32,-45 -67,-100 -103,-149 -102,-139 -256,-267 -312,-438 139,115 220,315 382,419 -28,-86 -148,-225 -209,-319 -245,-379 -440,-785 -687,-1166l-41 -63c-3,-4 -7,-11 -10,-16 -26,-42 -20,-34 -44,-75 -52,-88 -52,-71 -108,-148 -168,-235 -302,-571 -494,-787 6,3 14,8 17,9l31 14c70,22 -43,16 44,2 -83,-49 -153,-161 -191,-247 -55,-124 -119,-177 -104,-317 -120,56 -271,-202 -141,-281 -129,-46 -57,23 -160,-62 -59,-49 -80,-73 -156,-105l-16 140c-262,-73 -120,69 -401,-35 -3,-2 -10,-3 -13,-4l-121 -23c-38,44 -40,37 -46,116 -103,-36 -48,-46 -96,-26 -167,73 -61,134 -325,146 -62,103 -92,71 -142,162 -27,49 -16,141 -6,179 107,425 -96,329 302,832 167,211 282,501 415,738 69,124 143,232 205,356l349 776c342,895 655,1479 1145,2281 91,149 372,563 422,703 -49,60 -76,79 -117,165l-739 1085c-212,265 -77,115 -206,330 -162,271 -245,326 -340,474 -36,54 -66,95 -104,149l-189 331c-148,64 -446,532 -638,697 114,-38 122,-89 191,-174 60,-73 121,-146 201,-151 -73,95 -173,228 -241,335 -49,79 -11,32 -42,96 -48,98 -96,36 -119,154 -10,50 -1,2 32,20 -68,120 -126,250 -217,367l-573 606c-39,50 -16,67 -61,105l-210 135 -116 -68c65,-51 91,-52 131,-118 2,-4 6,-11 7,-21 2,-11 5,-15 8,-21 -72,70 -101,102 -158,152 -66,57 -164,68 -193,141 -41,102 -38,192 -23,293 -138,90 -174,271 -83,459 103,216 210,278 286,366 7,-3 17,-9 22,-11 5,-2 16,-8 22,-10 6,-2 15,-7 21,-9 71,-23 152,12 235,-74 36,-81 -118,8 67,15 82,3 56,1 108,-21l-39 97c6,-3 14,-6 17,-8l84 -64c49,13 32,22 53,49l128 6c64,75 0,-43 56,41 4,6 13,28 16,36 50,113 -11,152 120,73 -104,158 30,-21 -26,94 -27,57 7,3 -27,21l70 81c41,-17 110,-45 143,-45 20,0 56,9 80,28 51,40 8,-8 31,58 -4,2 -12,5 -14,5l-68 42c-5,29 88,-36 -52,92 105,-18 72,-27 136,-82 50,-43 83,-54 164,-65l-122 107c111,-38 339,-133 375,-241l98 152c27,-55 -16,-36 72,-75l71 51c71,-66 144,-136 217,-205 77,-73 162,-90 178,-191 2,-12 7,-15 11,-22 4,6 9,15 10,17 2,2 8,12 9,14 2,2 6,10 7,11 3,4 -19,5 14,8 15,-220 244,-265 387,-401 81,-77 121,-127 186,-203l148 -164c30,-23 20,-9 51,-33 67,-52 103,-151 157,-230 55,-80 111,-138 180,-219l664 -881c222,-324 420,-632 588,-984 74,-154 164,-361 296,-474l1703 2328c40,-59 68,16 19,-103 -65,-160 -282,-325 -341,-474 170,81 216,372 390,448 -2,-103 -1,-77 -49,-138l58 -31 -58 -101c216,215 398,488 556,747 24,38 31,53 53,86 28,41 11,13 49,64 48,67 57,101 109,159l99 151c-48,-30 -65,-39 -115,-111l-280 -406 -18 132c-83,-127 -143,-220 -208,-355 38,27 25,19 62,51 19,16 32,36 36,30 3,-6 12,10 19,15l-266 -340c66,77 120,125 146,222 -96,-58 -87,-140 -193,-175 20,108 76,135 122,225 27,52 5,-6 22,58 -63,-62 -101,-143 -175,-169 30,121 106,188 176,291l183 265c133,171 227,345 362,494 103,113 178,235 319,300l93 -58c-104,-42 -216,-111 -283,-216 170,107 286,224 505,194 -37,-46 -47,-45 -87,-87 23,5 71,14 72,14 33,-8 77,-110 234,11l11 -24c2,-1 6,-9 8,-11 57,-58 187,-69 269,-85l108 119c-77,-16 -80,-84 -113,-52 -34,33 8,73 47,145 42,79 -5,36 39,130 2,-9 3,-32 4,-36 15,-52 -5,-7 26,-49 25,42 52,80 80,118 -8,-37 -10,-75 -12,-83l-6 -29c-1,-2 -6,-7 -7,-13l7 -34c1,-11 16,-10 22,-16l81 114c53,-86 -20,-36 75,-74 12,198 110,158 77,313l148 133c-4,70 -19,84 -16,109 15,121 26,60 70,101 -36,-78 -50,-78 -24,-135 29,-65 68,-74 110,-128l7 77zm-8183 -396c67,32 42,10 84,55 106,113 65,61 -161,66l77 -121zm149 59c64,-68 -65,-39 115,-60 -24,68 -10,34 -17,101 -49,-51 30,-34 -98,-41zm201 -136c8,-4 20,-64 36,6l52 58c51,-3 12,-5 58,9 -7,6 -18,6 -21,18 -12,43 -64,65 -72,69 -41,-32 -32,2 -58,-79 -34,-111 10,-35 5,-81zm-1332 -753c5,-161 -36,-41 52,-135 94,143 80,74 -52,135zm-142 487c-69,-183 186,-312 19,-548 83,22 160,157 90,294l-109 254zm7608 -371c-103,-57 -82,-47 -145,-136 -150,-215 -46,-139 -28,-168 67,145 129,133 173,304zm-691 -1023c92,70 152,201 229,281 -32,-76 -75,-148 -123,-218 -105,-152 -31,-40 -156,-94l44 -21c1,-5 8,-4 12,-6 -52,-91 -148,-204 -173,-282l380 493c90,151 -27,82 127,267 64,78 101,196 143,287 -186,-127 -455,-609 -483,-707zm2025 560c63,54 77,54 80,162 -65,-56 -66,-45 -80,-162zm-788 -139c29,202 126,154 159,181 4,4 29,33 34,42 64,109 -12,-5 -66,-9 -91,-5 41,28 -34,10 -43,-10 -188,-255 -194,-272 143,48 29,49 153,-2 75,92 52,6 59,130l-111 -80zm-298 214c-30,-46 -30,-46 -63,-103l-58 -81c5,-5 11,-10 12,-18 1,-9 12,-8 17,-14 60,92 228,253 247,387 -90,-29 -107,-97 -155,-171zm-7372 -302c8,11 81,-38 4,83 -22,-30 -11,7 -16,-46 0,-4 9,-29 12,-37zm7509 -325c-31,-102 -37,-60 -43,-147l148 167 -54 195c-41,-49 -81,-93 -117,-143 -57,99 14,50 -77,85 -67,-114 -122,-158 -143,-250 148,44 68,73 198,168l-222 -280c1,4 1,10 1,11 0,2 2,10 2,12l-293 -357c68,88 -11,57 109,32 38,115 51,135 195,139 20,164 -1,59 51,107l245 261zm-470 117c-57,-77 -46,-94 -94,-158 -77,-101 -179,-176 -203,-309 134,74 132,137 257,312 69,96 158,200 171,290l-131 -135zm-155 -1250c-62,-88 -62,-89 -112,-194 163,8 30,25 119,33 55,5 19,-14 69,-24 51,204 221,248 405,519 3,4 8,11 12,16 3,5 9,11 12,16 31,42 29,29 56,87 -111,-32 -458,-513 -500,-594 -80,76 -25,77 -61,141zm314 390c90,35 112,94 218,230 89,112 64,103 176,192l39 33c4,-6 14,12 21,18 20,-94 -32,-56 0,-124 120,55 486,686 518,798 -63,-70 -100,-85 -154,-170 -101,19 -52,21 -137,28 -48,-131 -172,-364 -310,-392 36,-167 -73,-205 -161,-319 -53,-70 -178,-228 -210,-294zm439 109c-45,-99 -59,-70 -128,-167 -45,-62 -85,-96 -115,-189 74,33 241,231 243,356zm-900 -1556c-3,-8 -11,-7 -16,-11 114,17 147,78 193,171 -213,-38 27,24 -145,-138 -24,-22 -23,13 -32,-22z"/>
  <path class="fil0" d="M45601 26188c111,47 17,-47 92,119 53,-57 38,-50 74,-35 51,131 -130,111 43,262l-46 -402 123 156c68,-48 89,-42 140,-67 41,-285 -105,-339 -58,-592 60,-322 -335,-553 -351,-896 -130,-57 67,60 -45,-17 -81,-56 -55,-67 -76,-137 -9,-30 -31,-58 -46,-119 -16,-65 -10,-103 -29,-174 -41,-23 -5,-7 -61,-16 -4,0 -16,1 -21,0l-176 -101c-121,-138 -93,-247 -173,-375 -28,-46 -59,-72 -102,-139l-614 -979c-34,-58 -79,-127 -112,-180 -97,-154 -154,-193 -230,-309 -99,-152 -94,-237 -179,-371 -69,-14 35,-36 -43,14 -36,23 13,78 -41,24 -56,-58 -1,-29 50,-129l76 33c3,0 11,-4 17,-7 -30,-57 -55,-189 -104,-275 -57,-98 -96,-174 -152,-257 -160,-238 -1025,-1262 -1003,-1420 262,-450 466,-993 728,-1453 135,-236 260,-461 388,-709 470,-909 663,-933 888,-1338 227,-410 172,-472 561,-1082 76,-119 151,-195 226,-322 141,-235 127,-393 58,-664 -79,-313 165,-255 -557,-772 -549,-394 -1383,478 -1782,764 -803,574 -1278,1368 -1914,1988l-556 570c-435,-407 -559,-979 -1841,-1750 -216,-130 -370,-183 -561,-331 -713,-551 -1437,-694 -1491,-735 -102,-78 -125,-182 -252,-232 -107,66 -387,558 -408,722 -73,573 390,975 806,1455 106,122 1407,1859 1462,2001 211,553 751,788 941,1340 -627,778 -1229,1354 -1895,2207 -602,770 -1184,1573 -1692,2416 -185,307 -293,606 -381,990 -29,127 -213,925 1,1015 90,38 39,20 65,-58 7,8 15,12 17,25 2,12 13,19 15,22 55,59 -2,21 31,28 17,4 -59,-53 80,-10 36,30 37,166 38,211 109,-69 11,-11 88,-99 37,-42 54,79 26,-86l168 -16c-19,-129 -39,-42 22,-138 4,7 8,11 11,23l92 115 27 -97c37,71 86,197 108,272 87,-68 47,-35 112,-136l-12 68c98,6 91,14 171,33l34 102 97 -48c70,-49 -50,-3 67,-49l-89 269c50,-16 49,-20 72,-32 46,-25 -27,5 58,-35 -20,125 -29,50 21,185l53 -53c0,-1 39,-59 41,-62l-1 114 136 -15c6,3 16,11 22,14 8,4 21,12 28,16 7,4 21,12 32,17 56,-123 -15,-39 109,-100l177 -84c-35,243 -9,95 -126,266 134,-54 285,-191 413,-219 137,-30 251,-16 420,-203 155,-171 202,-378 331,-559 4,-5 10,-14 14,-20 4,-6 10,-14 14,-20 4,-6 10,-15 14,-21l86 -120c4,-6 9,-14 13,-21 4,-6 9,-15 13,-21l616 -854c6,-8 32,-52 39,-62 30,-43 50,-60 80,-96l71 -105c16,-26 45,-71 67,-99l341 -361c-34,78 -9,37 -57,98l-204 280c53,-32 165,-201 217,-265 54,-67 103,-92 134,-140 64,-101 -2,-66 101,-178l210 -195c72,-117 -52,-161 193,-290l-53 81c55,-9 87,4 97,-74 10,-78 -20,-83 78,-193 51,-58 66,-53 120,-120 246,-310 231,-240 394,-398l220 -323c71,78 66,51 132,72 105,251 114,190 215,370 5,-123 -38,-46 35,-104 6,10 18,25 21,30l170 261c4,7 8,17 11,23l-66 -4c-39,-53 -63,-90 -96,-146 -26,98 210,388 265,491 18,-150 -36,-39 -53,-220 131,90 164,244 233,382l39 -112c49,86 67,88 129,163 53,64 80,151 140,189 -239,53 45,1 -183,-89l-185 -123c38,122 90,128 156,227 68,102 67,170 140,274 94,135 198,372 323,489 -73,-199 -276,-475 -312,-622 173,145 283,435 376,623l-59 28c51,71 61,106 97,178l281 391c0,-5 -3,-15 -4,-20 -15,-66 -30,-186 -85,-224 -10,-6 -213,-24 -83,-171 -125,35 -111,34 -148,-146l99 101c-28,-76 -8,-29 -37,-93l-140 -257c-24,-46 -9,-18 -36,-68l-70 -141c-4,-6 -9,-14 -13,-19 -70,-109 -144,-169 -142,-316 96,46 405,390 459,553 67,207 14,60 -32,116l-92 -218c-57,-115 -41,-130 -127,-209 62,186 182,365 276,518l73 72c161,76 129,300 258,402 -51,-97 -165,-297 -182,-426 -4,-23 5,-58 6,-63 0,0 7,-114 72,51 9,23 31,83 51,124 3,-11 5,-47 6,-49l278 294c67,194 103,123 103,124 43,99 -64,-39 3,32 18,20 34,7 78,19l-11 185c-59,-77 -62,-98 -125,-156 -3,9 -8,13 -9,26l-2 136c6,86 20,85 39,182 -77,-24 -76,-23 -122,3 108,214 25,108 21,258 -3,148 7,101 75,154 -6,6 -15,11 -17,20 -8,58 -206,-240 -229,-264 37,118 67,205 171,278l-20 199 179 64 -13 -149c9,-110 49,-69 -2,-184 41,-18 -10,-15 57,-11 5,1 28,9 40,12l24 -355c150,38 37,-18 140,67 51,41 49,49 76,85 3,-5 5,-19 6,-15l65 -34c57,75 49,-37 62,163 4,60 1,49 18,138 -270,-129 -81,289 -63,382 43,-87 23,-50 68,-71 -140,-110 -138,-191 -121,-328 10,4 25,-1 31,12l136 33c115,-37 4,-22 -9,-58l-30 -94c9,6 21,6 25,20 4,14 35,29 41,33l56 38c2,1 12,4 14,5 1,0 11,2 12,2 50,9 -3,59 16,-6 84,-37 -5,47 -1,-15l113 -72c19,72 65,-67 13,101 -19,63 -20,37 -62,61l100 182c-52,31 11,11 -52,25l34 14c41,25 25,-3 63,52 27,39 22,43 37,72 -42,-170 -109,-225 -62,-344 4,8 10,12 12,24l132 185c-43,-115 -102,-159 -118,-316 149,104 215,184 305,341 50,-200 12,-118 -58,-206l-128 -219 63 -39c-4,-153 -31,-181 -130,-245l51 -22c1,-1 7,-5 11,-7 -46,-74 -106,-144 -129,-271 47,74 79,123 138,210 13,19 62,88 70,94l95 36 -33 232c9,134 46,223 98,314 27,-43 72,89 13,-107 -33,-111 -20,54 -46,-137 114,42 139,41 118,175 74,-50 126,-37 193,2 -1,-4 -22,-80 -22,-81 3,-60 7,-38 23,-69 109,84 85,94 105,252 -107,-60 -36,3 -106,-102l1 153c-46,-36 -17,-9 -59,-57l-30 -38c-3,-4 -9,-13 -14,-19l-131 50c30,79 37,93 65,156 57,132 -21,48 101,130 -14,-51 5,-12 -24,-81 -58,-137 -8,-28 -46,-81 46,-55 38,-47 72,26 14,31 34,59 40,91 13,77 -91,39 20,86l5 235c167,14 109,107 148,204 63,157 70,29 245,90 -54,-115 -45,-51 -2,-156l71 96c28,-125 12,-53 60,-107l49 142c51,-52 64,-45 87,-63l103 110c-29,-151 -62,-145 -111,-258 116,34 19,-9 143,68 -19,-75 -4,-245 -66,-279zm-487 -156c-32,-38 -164,-157 -54,-187 65,-17 77,31 82,56 8,34 -15,79 -28,131zm103 -585c90,58 61,46 163,183 40,53 16,20 55,84l94 146c99,171 38,171 31,187 -118,-81 -102,-189 -249,-438l-94 -162zm-248 -187l86 102c-204,-68 -16,-8 -86,-102zm-7081 91c33,-115 203,-410 308,-452 -73,455 -50,128 -203,348 -59,84 -3,78 -105,104zm7432 -106c105,166 104,39 101,271 -191,-173 -275,-472 -342,-577 -72,-114 -71,-100 -72,-277 8,3 22,-3 24,6 26,85 33,-65 72,43 72,199 64,137 170,291 74,109 29,-14 9,173 95,-24 52,-15 154,38l-116 32zm-518 -69c-1,-28 79,-64 59,7 0,0 -4,7 -5,7 -71,20 -52,61 -54,-14zm763 -68c-22,-111 74,13 32,12 -54,-1 -20,50 -32,-12zm-1615 -56c82,70 35,40 130,66l-51 91 -79 -157zm-5486 -172c137,-111 110,-165 249,-251 -64,190 -180,246 -248,376l-33 -112 -202 279c-19,-32 -92,35 9,-119 1,-1 5,-7 5,-8l300 -344c38,-89 148,-246 230,-308 -56,145 -228,333 -310,487zm5510 -840l93 139c79,137 206,142 250,405 -79,-26 -22,34 -97,-79 -129,-193 -219,-248 -246,-465zm297 -118l209 353c58,97 54,36 18,107 -94,-35 -101,-97 -130,-202l-97 -258zm193 -83c88,79 85,124 160,219 96,121 133,79 149,267 -182,-130 -262,-381 -309,-486zm272 -139c97,85 94,128 180,237 81,103 122,107 131,287 -89,-88 -298,-422 -311,-524zm-236 -376c-94,-77 -171,-179 -210,-314l136 150c45,64 56,68 74,164zm-5242 -4891c82,79 148,148 204,274 -123,-48 -177,-163 -204,-274z"/>
  <path class="fil0" d="M21188 25136c228,92 -5,-9 226,226 3,3 11,12 14,15 3,3 10,10 13,16 0,0 6,160 -138,-54 -46,-70 -72,-115 -115,-203zm-426 9c58,51 26,2 57,77 -120,-20 -119,-13 -134,-132 7,6 62,42 77,55zm-6962 -133c-112,71 -110,135 -276,108l-38 376 147 71c-53,35 -87,58 -103,129l147 -80c59,-55 61,-70 123,-118 11,23 88,-21 -41,162 -49,68 -86,103 -62,161 93,-119 117,-198 217,-296 6,6 16,6 18,17 22,106 110,7 21,252 405,-4 216,9 195,246 173,51 278,-177 408,-275 0,18 1,90 -3,105 -16,64 -14,40 -32,66l76 35c64,16 33,13 93,38 127,-192 247,-230 193,-491 177,-76 128,-55 260,-186 101,-99 90,-158 184,-262 641,-710 92,-278 556,-779 193,-208 518,-519 602,-787 -41,-31 -12,-5 -62,-47 -33,-28 -48,-44 -55,-50 23,-54 39,-121 93,-148 3,-1 13,-3 17,-4l51 15c3,-1 11,-3 14,-4 3,-2 12,-7 16,-10 4,-3 13,-10 18,-14l306 -485c113,-141 267,-347 415,-417 158,329 536,618 692,955 221,476 821,1018 950,1276l287 325c6,-7 14,-27 17,-20 2,6 13,-15 16,-17 120,-70 -18,66 159,-11 -135,152 -146,-18 -58,157l79 -104c3,-6 7,-17 11,-25l297 330c84,72 9,5 45,107 96,-9 78,-32 145,3l199 174c238,211 498,287 826,177 55,88 10,63 127,107l6 -181c22,3 106,21 108,21l203 -39c35,-15 -14,-53 67,-11l-2 -225c134,-8 87,10 207,31l-31 -282 146 100c36,-329 -77,-139 -96,-545 -15,-325 -264,-584 -404,-855 -112,-218 -120,-543 -320,-704 -240,-191 -386,-471 -557,-748 -222,-358 -1732,-2237 -1756,-2354 -12,-56 109,-307 127,-326 107,-113 140,-152 237,-290 -48,-95 -31,-29 -57,-143 135,-62 206,-201 255,-284l222 -367c217,-264 719,-1089 882,-1376 217,-381 315,-804 497,-1182 41,-85 68,-105 100,-172 49,-103 26,-142 71,-239 209,-451 582,-1294 358,-1739 -52,-102 -198,-140 -307,-235 -502,-437 -393,-232 -716,-166 -178,37 21,-50 -169,4 -68,19 -106,45 -207,67 37,69 141,0 -100,209l-193 250c-159,168 -290,310 -452,471 -463,460 -1967,2748 -2245,3199 -87,-46 -16,16 -93,-69l-438 -520c-283,-323 -540,-559 -790,-888 -799,-1053 -1214,-1343 -2361,-2090 -136,-89 -191,-164 -347,-234 -690,-308 -635,-50 -748,-383 -33,81 10,115 13,252 -482,435 -1016,988 -518,1692 168,239 434,434 655,645 424,405 589,614 958,1030 962,1086 1214,1364 2043,2610 -180,409 -497,813 -712,1168 -252,418 -447,803 -737,1181l-811 1106c-32,53 -51,102 -87,153 -173,243 -330,468 -456,741 -96,206 -69,143 -197,275l-51 264c-2,1 -66,-44 -41,70 26,120 86,91 150,170l72 -24c38,-11 23,-9 68,-16 92,-14 72,0 134,-57 5,9 12,13 14,26l41 59c2,2 9,9 13,13l110 -2c0,91 4,26 71,113 -102,163 -87,6 -91,186l103 -99c5,-6 10,-15 15,-20 22,-24 19,-21 53,-50l82 -65c32,45 39,-51 60,141 7,70 25,59 -41,93 99,-21 65,-27 102,-101 110,76 25,-85 101,106l116 -100c94,41 56,11 105,81 14,-28 90,-174 111,-200 43,-51 -4,-18 79,-63 22,-12 27,-36 92,-13 40,121 -36,94 -108,65l-38 145 107 -72c5,-4 13,-15 17,-18 3,-4 10,-13 16,-19l129 9c5,-3 14,-16 23,-23 -19,216 -39,126 -152,81zm-485 14c42,-229 39,-101 214,-194l-18 65c-3,7 -7,18 -12,25 -45,73 -127,89 -184,104zm-97 10c-28,-42 -32,-4 -42,-88 -26,-217 163,-125 163,-125 -76,99 -22,86 -121,213zm662 -264c14,59 -55,84 -51,5 3,-73 -12,-13 36,-13l15 8zm6804 -237c-8,-242 -51,-206 -105,-380 124,54 63,8 133,158 39,83 37,79 100,126 -1,2 -100,71 -128,96z"/>
  <path class="fil0" d="M7393 11022c44,133 21,263 163,326 150,67 71,-6 189,19 166,35 467,191 617,154 363,-90 368,-148 471,-345 128,-245 -41,-322 -141,-520 177,21 151,55 249,246 57,109 117,194 286,191 20,-261 -22,-275 -86,-471 -99,17 -121,30 -203,-5 13,-444 254,-121 -296,-1212 -105,-209 -203,-364 -332,-524l-1974 -2401 631 -1003c48,-81 35,-100 90,-185 38,-58 82,-113 125,-183 148,-236 362,-637 547,-859 108,-131 224,-380 312,-543 255,-474 511,-1004 697,-1526l383 -750c144,-228 297,-482 272,-830 -411,-248 -420,-428 -976,-549 -293,-64 -97,-92 -382,55 -107,56 -142,55 -252,58 -388,490 -818,963 -1266,1400 -76,75 -157,135 -231,215 -226,243 -437,445 -643,725 -129,176 -229,376 -384,542 -120,128 -278,352 -385,506 -118,172 -288,347 -391,531 -166,-91 -273,-303 -406,-457 -145,-169 -279,-285 -429,-461 -466,-544 -1201,-1397 -1848,-1712 -276,-135 -621,-345 -912,-422 -235,-63 -112,-86 -281,-178 54,184 113,108 146,317l-183 304c-267,544 -118,801 -25,1237 220,1024 1380,2110 2026,3073 527,787 590,353 51,1166l-1556 2280c-135,185 -251,394 -373,584 -254,391 -567,998 -119,1313 75,-54 249,-232 338,-162 78,63 -14,-12 34,97 6,-6 12,-24 14,-18 24,56 26,-30 32,-35 42,-33 1,-10 62,-35 64,72 108,73 131,172l122 -84c1,129 -9,86 24,176 68,-95 14,-78 174,-67l43 143 81 -69 -20 154c53,26 101,40 163,81 89,60 50,82 146,54 -4,12 -10,17 -12,33l-29 71c-6,26 4,41 19,98 16,-33 20,-37 45,-88l91 94c205,-308 317,-141 499,39l300 -11c65,-43 116,-82 175,-124 4,8 13,10 13,22 0,11 9,18 9,21 -4,61 -5,33 -21,62l24 43c14,1 22,-30 25,-25 2,6 13,-15 17,-18 3,-4 13,-13 17,-17l400 -388c75,-100 71,-78 154,-155 117,-106 19,-190 162,-351 258,-292 328,-325 513,-684 329,-637 155,-279 459,-740 67,-102 196,-291 239,-375 200,96 306,366 486,512 53,42 30,24 63,22 68,-6 -37,-116 122,58l369 469 -79 56c-2,3 -9,12 -14,19 96,51 170,173 243,258l312 200c6,1 18,5 26,9 32,129 -111,0 115,133l422 196c5,-8 12,-31 14,-26 17,40 22,-84 88,-120 135,89 -17,-96 45,31 52,107 -45,74 43,224 100,-95 24,-38 84,-142 105,17 77,11 141,87l-104 -6zm606 -513c146,52 111,66 208,149 -56,93 -58,81 -20,213 -127,-84 -175,-175 -188,-362z"/>
  <path class="fil0" d="M18905 40279c3,-2 10,-8 13,-10 2,-2 8,-9 10,-11 5,-3 11,-16 41,-29l30 51c61,29 96,2 133,-27 225,-174 -155,169 51,-62l-101 -34c100,-57 170,-27 252,-83l220 -155 -45 -132c25,18 -12,17 63,42 40,14 55,7 65,6 433,-20 239,29 256,77 90,-39 118,-103 210,-147l-141 -55c7,-5 16,-11 21,-14 4,-3 16,-10 21,-14l40 -27c13,-10 46,-40 50,-44 49,35 -19,24 107,41 31,4 91,-2 134,2 153,14 64,22 215,0l513 -38c-7,-6 -18,-13 -23,-17l-90 -61c193,-60 142,-58 279,-163 121,22 33,-16 137,86l51 -18c93,-39 199,-60 217,-166 -52,33 19,-2 -62,28l-245 69c5,-7 12,-17 16,-21l60 -49c169,-122 430,-176 380,-312l-39 -65c130,-63 40,-10 98,-23l90 -31c-7,-5 -17,-11 -22,-13l-66 -22c-46,-14 -14,8 -64,-19 136,-83 410,-92 363,-299 -34,-150 43,177 -60,-75 73,-11 74,13 143,-60 38,65 -48,-11 65,56 51,-55 59,-46 124,-80 -105,-65 -28,1 -68,-106 151,-33 65,-59 185,-105 14,-5 63,15 70,-23 27,-147 54,134 -12,-28l-35 -43c200,46 109,-35 141,-135 79,126 101,47 268,-236l25 -47c3,-6 9,-13 11,-27 2,-14 7,-18 11,-27 -82,53 -48,45 -132,100 125,-173 31,-167 15,-211 11,3 39,18 45,19 43,10 17,8 59,1l87 -102c-27,-104 -46,-121 -15,-186 44,-4 -17,-17 44,12l84 49c-3,-11 -14,-59 -18,-67l-78 -56c35,-213 105,-116 110,-348 6,7 13,20 16,24l27 38c49,56 -18,21 30,12 6,-10 109,45 10,-81 -1,-2 -13,-7 -14,-8l-36 -13c15,-291 107,-512 103,-822l-51 -28c-1,-6 -9,-4 -14,-7 -10,-156 -40,-72 -36,-233 4,-158 38,-141 55,-223 26,-125 3,-293 80,-399 7,228 34,424 43,590 9,157 -118,356 53,434 -7,-35 -41,-810 -101,-1164 -61,-362 -55,-43 -82,-118 -2,-8 -12,17 -19,25 -3,-111 -12,-246 -6,-354 13,-243 -39,-472 -196,-640l32 433c-129,-187 -122,-444 -198,-611 48,-22 16,-5 35,-4 46,0 -41,31 17,4 -30,-116 -48,-58 -58,-172 -8,-97 37,-83 -4,-160l-42 -67c-41,-102 -15,86 -26,-13 0,0 -46,11 -84,-105l-156 -325c-60,-130 -90,-98 -138,-172 -60,-92 -13,-110 -87,-225 -64,-101 -187,-256 -268,-348 -500,-564 -862,-1109 -1580,-1502 -521,-285 -1220,-527 -1924,-572 -657,-41 -1444,280 -1980,483 -332,126 -674,173 -1015,258 -311,76 -600,237 -856,372 -564,298 -922,679 -1330,1135 -320,356 -647,1113 -823,1673 -128,408 -119,642 -131,1110 -11,436 77,289 114,513 22,131 15,436 61,528 36,-75 -78,-128 35,-289 192,-157 282,476 339,584 -4,3 -13,8 -14,9l74 467c26,-79 -10,-38 73,-59 16,200 63,219 133,346 170,306 327,612 559,883 59,70 137,162 228,249l959 934c100,78 139,140 252,232l608 439c119,81 242,152 391,181 140,28 717,258 930,132 89,97 30,44 124,86 60,-100 187,-62 350,-65 110,-3 223,-2 309,79l-217 -14c31,84 14,44 20,150l209 -26c41,221 225,222 411,173 20,-6 58,-15 79,-21 96,-26 91,-50 45,-123l233 -17c64,-175 47,-61 102,-92l40 -20zm2564 -1180c-35,58 -7,62 -27,136 -50,16 -98,25 -161,51 -110,45 31,15 -120,45 31,-90 37,-38 65,-80 49,-71 4,33 4,-40 0,-5 -2,-9 -1,-13 117,-40 70,-42 138,32 3,-188 23,-137 133,-147 145,-13 94,-33 206,-53 -91,120 -78,70 -203,137l-34 -68zm-3593 133c110,-63 250,2 306,35 -15,11 -13,59 -161,31 -123,-24 -130,-55 -145,-66zm3505 -3084c21,168 109,176 -83,548 75,-44 53,-76 95,-171 -13,624 -479,1084 -931,1459 -81,-27 -22,65 -69,-90 -146,387 -776,291 -1200,295 -146,-233 -57,2 -94,-529 -201,4 -273,-28 -401,103 -240,247 -139,293 -498,315 27,-71 14,-69 54,-141l-84 140c-209,39 -505,33 -743,27 -324,-9 -332,6 -552,-168 -654,-520 -1686,-1526 -2072,-2280 -132,-258 -31,-1065 48,-1325l167 -549c118,-419 623,-1242 1054,-1357 170,-45 -20,12 109,-4 38,-5 224,-64 251,-79 107,-58 111,-109 248,-139 158,-35 93,-61 273,-58 -29,119 13,32 -68,129 208,-22 133,-88 303,-137 145,115 -12,58 152,112 -80,-160 14,23 -32,-49l15 -157c26,12 74,29 78,30 43,20 35,18 58,36l-67 65c25,17 -7,101 155,-11l120 -93c36,25 50,40 61,45l144 -41c-6,-6 -30,-27 -36,-33 -30,-34 -17,-11 -43,-69 184,-116 657,-87 810,38 -206,4 -558,-14 -693,65 356,108 793,-172 1298,208 6,4 14,10 20,14 5,4 13,10 19,14 323,256 803,690 1033,1026 89,129 177,321 288,426 32,29 109,87 149,123l14 -167c6,145 160,193 88,278 -57,-100 -4,-43 -102,-111 41,121 72,130 106,207 32,73 13,81 34,135 68,184 193,184 196,511l35 253 70 -149c18,57 20,118 39,181l53 109c1,1 6,49 8,56l65 199 -146 509c-2,-6 -13,13 -19,19 -1,-207 60,-158 60,-348 0,-162 -38,-160 -34,-338 -75,-18 -72,-10 -100,-59 -14,136 33,379 54,486l-128 717c70,-38 46,-38 76,-84 18,-28 33,-46 37,-52l18 -19c13,-30 -3,-151 -8,-238 44,81 18,205 83,61 30,-64 -4,-102 42,-203 26,46 48,-77 32,137l-58 367c78,-121 106,-219 158,-354l-9 159z"/>
  <path class="fil0" d="M8445 39513c-68,-106 -136,-217 -225,-285 -54,102 57,29 -50,79 110,123 29,113 214,329 111,129 197,237 308,157 -21,152 -39,92 46,188l-31 33c-4,5 -10,13 -14,18 -12,16 -25,97 -42,61 -2,-5 -9,14 -14,21l-176 -66 3 117c-107,-37 -77,-22 -118,67 -155,-33 -129,-6 -231,14 -3,66 6,82 -81,164l230 173c3,-5 11,8 16,12 43,-32 14,8 56,-41 5,-6 20,-28 23,-34 42,-99 9,-30 -10,-69 114,-11 99,-1 176,-37 19,27 28,36 51,67l68 19c-65,-64 -67,-54 -96,-154 117,14 94,-15 136,53 27,42 -17,29 -41,47 82,83 86,206 135,267l200 233c-6,-100 -9,-259 -99,-259l-54 -42c3,-2 14,-5 17,-6l55 -15c-58,-188 -106,-146 -185,-253 -44,-60 -57,38 -21,-71 41,-124 72,115 101,26 1,-4 10,2 15,1l-1 -121c95,138 119,82 177,235 -3,4 -9,9 -10,11 -79,94 -62,79 -24,111 56,46 8,35 66,-34l104 128 -79 91c177,135 65,5 75,205 127,89 108,87 186,238 29,-117 -121,-247 -135,-354 125,29 26,32 154,60l-36 -182c87,-38 5,21 53,-31l-48 -213c145,63 75,72 149,131 106,84 -52,-54 65,25 28,19 30,31 58,62 0,-159 -45,-90 9,-177 47,99 13,67 84,148 4,5 11,11 15,16 5,5 11,11 15,16 7,6 25,26 31,31 82,64 -39,-1 66,32 -23,-101 -72,-179 -38,-247l55 119 90 -219c59,-79 -31,3 57,-44 8,26 42,-30 -4,52 -75,139 8,-109 -24,27 -20,90 57,55 -45,81 72,37 -6,39 87,1l-3 279c54,-60 0,38 43,-48 39,-76 18,-102 -17,-195 100,9 104,31 168,88l-172 -269c7,-3 18,-4 23,-5l105 -35c86,-42 104,85 119,56 3,-6 10,15 16,22l-10 -156c99,76 54,108 166,115l-77 -119 58 -92c-4,-1 -11,-1 -12,-1l-84 -29c76,-98 50,-94 10,-215 -173,-524 -1297,-1890 -1630,-2454 -191,-325 -1560,-2452 -1641,-2738 330,-164 -6,-117 393,-548l639 -700c92,-125 2,-202 122,-337 221,-246 373,-500 506,-832 260,-650 775,-1064 895,-1810 47,-290 -24,-523 12,-823 -56,-51 -117,-95 -174,-153 -71,-72 -65,-89 -158,-146 -154,-95 -239,-138 -427,-219l-124 155c-42,33 -9,10 -61,34 -218,101 -363,296 -543,459 -131,118 -234,219 -360,342 -316,308 -1328,1672 -1547,1811l171 -76 -40 183c8,-4 18,-9 23,-12l44 -25c98,-66 163,-187 267,-239 -22,260 -342,300 -347,559 214,-192 252,-326 531,-474 -27,96 -85,63 -21,126l76 -84c-22,90 0,-6 -38,92 -19,51 -9,44 -31,92 -18,40 -69,109 -117,155 3,0 8,-2 8,-2l61 -13c-63,71 -101,146 -170,220 -52,55 -73,54 -110,103 -31,39 -24,49 -71,108 -120,153 -54,137 -106,233 -96,178 -113,-3 -221,171 10,2 23,0 27,1 47,9 16,-1 43,13l-86 88c-65,-62 -68,-71 -128,-169 -2,-3 -48,-95 -48,-95 -1,-6 0,-16 0,-22l22 -78c-115,51 -174,-135 -224,-213 -65,-101 -138,-222 -206,-325 -267,-406 -613,-803 -935,-1138 -346,-360 -694,-660 -1080,-991 -114,-98 -127,-154 -261,-258 -287,-222 -75,-106 -452,-339 -56,-35 -67,-57 -143,-100 -276,-153 -287,-162 -568,-167 -52,-1 -149,-36 -192,-44 -150,-25 -245,4 -417,1l-26 61c-2,2 -9,9 -11,12l-87 118c-203,-93 -347,148 -272,342 35,91 174,406 221,482 124,202 330,431 467,629l143 129c-2,-4 -6,-14 -9,-19l-53 -177c62,69 114,93 171,164 198,249 982,1282 1047,1437 51,118 50,106 110,195l486 766c92,129 165,-10 219,336l5 -164 474 743c112,181 393,586 439,759l-161 160c-27,80 1,-8 -2,56 -1,6 1,15 0,20 0,6 -1,15 -1,21 0,7 -3,15 -3,22 -8,94 -13,50 -1,157 -169,46 -48,-14 -152,91 -112,113 -221,228 -289,364 113,-86 180,-204 302,-263 -20,124 -129,226 -230,351 37,8 29,-36 61,109l-166 0 -132 174c-36,43 -7,8 -32,58 -31,-28 -71,11 -85,-116 -11,-98 139,-127 161,-241 -234,149 -182,214 -240,350 -28,66 -32,34 -68,112 63,-48 67,-41 127,-71 -9,19 -27,60 -37,70 -72,72 -31,0 -110,28 -29,10 -92,93 -98,106 -74,174 -52,115 -174,262l83 35 -103 145c-53,72 -51,42 -99,108 -7,22 87,105 -113,220 34,-120 64,-76 98,-174 -62,33 -120,100 -131,172 -21,139 -91,94 -118,256 -11,65 4,14 -16,68 -13,33 -39,74 -59,101 25,-12 76,-49 91,-66 20,-22 49,-67 66,-90 49,-67 22,-91 86,-151l316 -312c-8,65 -103,212 -149,292 -66,118 -192,208 -277,304l-144 190c-66,98 -111,203 -173,251 39,15 56,27 78,52 -2,5 -55,110 -55,115l149 -146c-26,141 -37,60 -90,186l-38 180c5,3 12,7 14,8l27 12c1,1 10,9 11,6 1,-3 6,3 10,5 -32,50 -85,136 -131,185l-92 -116c-58,64 -66,109 -150,162 -135,85 111,-51 -38,23 -55,27 -15,11 -72,21l-106 -144c-2,-12 -10,-13 -16,-19 -199,218 -141,9 -244,248 -9,-4 -28,-5 -33,-6l-152 -154c-28,-39 -8,18 -60,-78 78,10 -17,-27 78,16 10,4 63,-7 94,119l-4 -150c-155,34 -59,77 -119,-105l-63 133c-43,-88 -78,-101 -167,-123 -95,191 -10,78 3,70l40 -38c-2,9 -16,54 -18,64l-8 72c0,12 12,56 13,66 -108,-33 -71,-10 -133,-88 -29,-36 -40,-51 -50,-97 -166,70 -79,67 -142,142 -41,49 -388,59 -527,221 -95,111 -83,32 -174,162 32,86 70,144 70,222 1,148 9,98 60,222 9,-103 49,-247 11,-321 5,-4 13,-9 15,-10l34 -12c4,-2 13,-2 17,-3 4,-2 13,-3 17,-4 4,-2 13,-6 17,-8l163 -95c52,-45 42,-39 114,-63 -93,-65 -97,10 -40,-78 26,31 29,47 57,86 83,114 119,54 182,217l33 -98c21,153 -18,29 49,106 -12,-140 -29,-32 26,-139 -134,51 -106,-44 -103,-156 -67,41 -15,49 -89,5 36,-166 18,-5 -32,-186 148,50 58,4 110,108 23,47 41,131 99,151l153 79c13,72 22,180 68,216 78,61 -3,2 71,-18 48,-13 73,30 102,-11 -61,-47 -82,-64 -129,-126 6,-5 14,-13 19,-16l107 -76c5,-14 18,-11 27,-17 25,148 44,270 48,475l56 30c89,8 62,-15 115,-85 56,170 5,182 139,298l23 -212c29,33 25,28 32,52 1,6 4,25 5,33l-15 197 -84 23 -36 274 189 154c74,-147 -4,-52 295,-285 153,-119 77,57 86,173 7,-7 16,-16 21,-21l121 -137c37,-36 -8,-8 54,-38 -22,69 -47,98 -70,150l1 121c-75,-51 -58,-50 -142,-47 18,44 9,29 30,53 3,4 10,11 13,15l106 65c166,-118 190,-252 348,-326 -7,-163 34,-179 146,-297l236 -251c138,-171 132,-69 202,-202 2,-4 6,-12 8,-16 276,-479 -33,-193 42,-473 27,-102 176,-170 234,-256l46 -76c14,-20 46,-56 69,-83l299 -400c134,-145 143,-249 362,-282 3,-10 5,-36 6,-43 13,-70 38,-54 111,-142 112,-133 150,-300 215,-454l119 -224c-16,-9 -79,-22 -88,-25 27,-22 36,-28 65,-52 95,-77 9,65 32,-26 3,-9 11,-9 16,-14l201 313c8,13 27,41 39,51 119,93 87,-19 210,187 532,888 179,239 511,692 33,46 30,32 64,87 18,28 40,74 61,107l55 73c3,-5 11,12 17,18 -23,-54 -45,-108 -79,-173 -74,-144 -172,-285 -225,-434 91,7 25,-17 80,30 27,22 32,41 51,69 94,144 163,336 271,435l-187 -423c124,100 299,479 444,634l-176 -369c43,30 24,10 59,48 24,27 14,20 29,40l248 354c31,49 65,99 96,143l413 576c3,-5 12,8 18,13 -32,-91 -54,-118 -98,-187 -30,-46 -66,-122 -102,-174l-261 -377c-4,-7 -18,-26 -23,-32 -6,-9 -50,-64 -52,-66 -94,-144 -247,-373 -286,-543l82 -39c-56,-82 -144,-260 -109,-336l127 207c78,124 84,83 182,107l-62 59c-1,-3 -8,0 -11,2 90,149 12,47 97,83 125,54 10,-21 82,86 57,84 109,94 192,161 -33,-103 -21,-17 -84,-159l-247 -427c-106,-184 -109,-322 -200,-442 -4,-4 -10,-11 -13,-16 -51,-64 -64,-48 -83,-175 7,5 18,10 23,14 5,4 16,10 21,15l130 208c0,0 88,77 95,82 203,138 296,485 461,673 116,132 -6,72 147,250l190 267c47,60 4,-26 46,45 44,72 24,60 -1,138 9,1 21,1 26,2 157,11 68,78 136,165l37 -107c-160,-132 -234,-372 -338,-547l-104 -165c-6,-9 -26,-46 -33,-59l-130 -231c-78,-144 -177,-280 -235,-438 82,29 132,121 187,190l58 111c100,135 -41,-23 60,32 -23,67 -30,2 1,122 122,-7 82,59 215,109 61,23 20,-9 82,43l97 70c-63,-145 23,37 -29,-74 -37,-78 -46,-28 -58,-138l317 428c-31,2 -28,3 -56,19 87,123 -16,-4 75,60 13,10 -7,35 42,12 51,231 327,428 444,634 50,89 30,-11 27,116l-59 -31c-5,-4 -12,-11 -17,-15 -87,-84 -69,-154 -172,-197l124 213c-8,15 -34,91 -121,117l-28 5c56,43 338,461 372,456 1,0 10,-1 10,-4l86 88c50,163 9,30 -27,86l-82 -141c-8,90 4,77 -59,133 -145,-70 -6,12 -77,-144 -29,-63 -54,-91 -94,-152zm1578 714c-2,-43 47,-37 38,2 -10,49 -35,61 -38,-2zm-1152 -233c82,34 11,19 158,159 100,96 150,272 188,400 -84,-33 -143,-156 -190,-247l-42 -74c-16,-28 -32,-56 -45,-81 -38,-70 -42,-89 -69,-157zm49 -127c-88,-196 -14,-27 -119,-160 35,-40 12,-31 72,-19 4,1 14,2 19,3 55,14 64,22 120,47l16 -81 62 73c-37,21 -57,30 -87,59 -98,98 42,18 -83,78zm915 -244c41,70 40,40 6,113 -33,-71 -58,-59 -6,-113zm-966 -5c-29,18 30,39 -81,13 35,-26 -62,-123 81,-13zm542 -460c140,53 314,330 329,487 -85,-116 -302,-399 -329,-487zm-7161 215c8,128 115,242 -29,302 70,-165 -62,-166 29,-302zm-312 28l106 115c46,108 -45,96 -82,111 1,-117 -7,-116 -24,-226zm7226 -235l193 198c151,15 -125,50 26,-10 153,-61 -73,13 43,-28l50 138 -140 63c-5,4 -13,14 -19,20 -41,-57 -81,-138 -122,-204 -3,-5 -7,-13 -11,-18l-48 -70c-5,-12 -46,-28 28,-89zm-792 -1285c41,39 57,19 61,102 5,132 -19,63 -61,80 -25,-38 -12,-8 -14,-80 -3,-102 -49,-67 14,-102zm-92 58c-62,-55 -449,-586 -476,-716 176,301 450,563 476,716zm-3346 -3232c2,5 7,15 10,20 2,5 3,15 5,20 60,156 115,33 41,171l-112 -173c-13,-85 0,-31 20,-74l36 36zm147 99l-78 -105c-27,-52 -27,-54 -44,-110 137,14 71,-13 106,93 34,106 53,47 16,122zm-392 -701c98,46 70,-4 87,124 -84,-39 -73,-23 -87,-124zm-2088 -3064c-109,-47 -25,5 -90,-55l-111 -173c50,29 74,56 113,96 74,75 37,5 88,132zm594 936l-85 -79c-26,-26 -49,-42 -77,-71 -216,-225 -852,-903 -910,-1112l558 608c86,97 170,234 266,313 109,90 176,155 248,341zm-926 -1327c-59,-75 -134,-140 -166,-231 90,28 52,21 106,96 37,53 53,53 60,135z"/>
  <path class="fil0" d="M31052 11809c100,50 87,63 201,42 -89,-94 -85,-63 -65,-228l347 93 -91 -161 113 -94 -175 -201 75 -169c21,41 32,84 58,128 46,76 36,19 71,118 -86,-24 -51,-7 -92,-66l-34 36c-5,6 16,3 19,13l72 76c38,2 112,-6 123,-6 81,2 12,-28 63,22 42,-76 33,-2 7,-110 101,28 34,-23 93,75 3,-7 7,-27 8,-22l18 -74c84,101 23,175 118,256 6,-156 -42,-40 -23,-167 5,-33 36,39 4,-31 -52,-116 -119,-120 -150,-245 75,57 41,47 166,70 -62,-89 -224,-214 -14,-232 -28,-51 -41,-66 -66,-136 107,39 54,21 128,97 -17,50 -23,46 -26,51l-23 30c22,30 62,63 93,129l34 -115c19,11 24,14 26,25l253 336c-62,-194 -261,-282 -267,-518l415 307c-5,193 -67,106 41,183 30,-211 -105,-233 -115,-435 36,29 17,12 65,54l81 76c81,58 13,29 60,19l-6 -30c-55,-123 -149,-214 -159,-354l175 254c32,50 58,66 112,109 66,52 77,62 178,80 6,-177 -92,-228 -83,-405 86,82 223,148 296,239l34 -34c5,-5 -13,-18 -15,-13 -1,3 -139,-233 -190,-255 -128,-54 -134,-206 -212,-309 -100,-135 -173,-62 -318,-434 -68,49 -58,87 -116,-3 -56,-88 -37,-126 -138,-85 64,-155 -74,27 -145,-458 -20,-134 -423,-914 -523,-1100 -56,-102 -105,-108 -159,-184 -118,-164 -242,-452 -330,-642 -20,-43 -30,-77 -49,-108 -60,-99 -33,-35 -90,-98 -96,-106 -144,-291 -251,-405 -107,-114 -224,-288 -256,-457l97 46c-80,-114 -113,-77 -162,-140 -43,-55 -97,-192 -125,-257 -286,-668 -350,-406 82,-1035l630 -997c127,-278 389,-642 442,-781 70,-182 91,-66 162,-242 91,-226 194,-291 294,-521 189,-430 521,-619 518,-1153 80,-56 152,-127 151,-257 -2,-190 -110,-164 -201,-105l-63 -60c-43,30 5,9 -52,26 2,-14 15,-84 13,-89 -31,-122 91,75 -16,-33 -57,-57 -45,-6 -114,-48l-75 -38 -128 4 -20 -85c-92,59 -95,62 -171,-11l-103 178c-2,4 -8,13 -11,20 -36,-51 -29,1 -25,-118 -40,159 -64,129 7,256 39,-75 88,-113 71,-192l118 66c1,1 8,5 13,7 -3,164 -39,347 -134,463l-92 -124c-99,94 -218,185 -279,252 14,-60 13,-37 34,-77l117 -263 -52 -70c-35,-43 -12,-57 -87,-73 -156,-32 51,4 -84,30 -43,8 -45,-4 -126,-11 -58,168 -9,93 -150,155 54,-130 134,-151 196,-304 46,-115 -27,-262 -70,-374 -30,77 17,121 37,208 -5,3 -14,2 -16,8 -24,109 19,-25 -77,63l-125 101c-55,-31 -98,-55 -132,-76 -54,117 -9,109 -100,213 -333,380 -596,958 -810,1411 -229,487 -488,1005 -765,1458l-141 198c-229,-275 -416,-578 -608,-891 -315,-513 -546,-641 -861,-1047 -179,-229 -370,-373 -550,-610 -150,-199 -320,-453 -507,-618 -41,-36 -57,-48 -93,-99 -59,-84 -81,-28 -19,-135 -214,-24 -227,-163 -373,-254 -222,-137 -453,-200 -715,-282 -252,146 -68,80 -301,74 -62,119 -123,286 -213,392 118,207 29,357 139,847 196,875 475,1562 950,2306 211,329 1044,1708 1278,1945 85,87 160,202 230,304 49,71 69,111 117,161 207,212 111,238 -217,708 -123,176 -236,336 -350,528 -221,369 -495,690 -732,1021 -429,598 -815,1219 -1284,1785 -33,40 -63,84 -90,129 -5,9 -31,56 -33,59l-58 78c-172,7 -113,-12 -238,-58 66,121 144,92 247,207 -40,189 -234,628 161,542 699,-153 1473,-1277 2038,-1747 369,-306 621,-589 883,-995 103,-162 129,-93 243,-227 95,-111 115,-195 235,-278 229,138 977,1643 1095,1895 91,194 130,101 244,268 63,93 118,224 154,347l-29 -161c81,45 38,23 63,6 3,5 8,8 8,16l100 163c-74,-53 -62,-46 -71,-140 58,34 25,-2 72,57l393 668c154,227 165,334 368,542 137,141 49,87 42,141 57,63 62,48 94,118 -83,22 -25,-2 -90,29 -83,-38 -78,-44 -116,-110 5,32 54,161 72,199 30,63 81,98 167,137 45,20 209,75 237,79 114,16 75,15 95,-37l53 -99c3,-2 15,-8 18,-10l32 -19c-158,-55 -79,-42 -122,-97zm-9 -807c-32,26 -98,-114 -39,102 2,8 21,33 23,39l-66 35c-3,6 -6,15 -7,17l-27 76c-56,-69 -143,-97 -249,-122 45,71 42,56 85,119 -156,122 0,6 -85,119 -274,-183 -88,-238 -245,-302l62 -71c-69,-41 -62,-18 -94,-112 65,63 52,52 123,98 -62,-145 -134,-224 -62,-292 27,38 40,53 71,116 57,116 -21,58 83,104 -15,-88 2,-34 -37,-105 -136,-245 -55,-258 -116,-363 -118,-202 -25,103 -130,-125 -36,-78 -43,-151 -49,-224 -91,120 -19,181 -112,292 -12,-29 -34,-87 -45,-107 -49,-92 -10,-35 -75,-88 0,301 125,146 158,442 -104,-73 -101,-123 -129,-177 -69,-133 -142,-159 -148,-352 78,25 85,76 127,85l-39 -140c129,-3 -19,-22 54,-6 42,9 4,-14 40,23l47 75c2,-5 9,13 19,18l-44 -192c9,5 19,14 25,19l41 34c4,3 11,10 14,12 67,47 -45,35 25,3l-15 -196 93 90c24,34 38,72 56,100 2,-35 -32,-122 -48,-159 121,76 97,18 147,200 92,-153 112,92 264,244 -9,-151 -75,-183 -84,-332l151 238c64,95 11,29 69,65l-39 -377c88,26 43,-60 90,96l-63 0c63,109 67,177 160,251 -22,-97 -40,-96 -61,-185 137,156 48,164 185,216 -11,-128 -61,-152 -92,-285 80,73 336,518 373,655 -186,-206 -163,-239 -231,-325 -3,-5 -12,-13 -15,-16l-35 -29c42,185 89,94 103,334l-120 -32c47,60 55,99 86,145 77,115 169,88 51,117 -135,-201 -134,-58 -304,-408l-64 -164c-27,79 -47,-78 -11,92l256 419 -57 91c112,66 17,1 41,101 9,41 41,81 72,129l-84 15c-101,22 63,39 -25,7 -50,-18 -20,-67 -48,-147zm1551 -547c186,-114 -18,-63 121,-124l57 29c-8,143 -10,93 -128,154l92 64c-142,-13 -57,9 -142,-123zm-283 67c1,-59 28,-46 39,2 9,40 -39,50 -39,-2zm-691 -317c59,60 77,93 85,185 -122,-68 -207,-154 -247,-341l162 156zm-1905 -490c64,60 62,44 85,148 -85,-36 -81,-37 -85,-148zm-2157 -3881c90,62 106,24 107,172 -56,-46 -95,-78 -107,-172zm2494 -2420c67,42 39,17 54,94 -68,86 -28,96 -120,161 32,-96 66,-131 67,-254 -110,74 -22,50 -151,120l362 -757c43,62 56,-84 28,89 -9,60 -102,77 -6,265l-61 42c-6,3 -41,21 -50,26 108,45 78,51 2,147 -77,-26 -21,14 -50,-44 -2,-4 4,-20 -5,-34l-70 145zm468 -690c-12,79 5,38 -23,72 -58,70 -3,10 -71,26 59,-89 -9,-55 94,-98zm284 -597c232,-201 137,-349 263,-493 -36,279 27,233 -131,441l-160 248c-5,6 -11,14 -15,19l-57 45c26,-97 60,-147 100,-260l-252 408c34,-32 5,-71 128,-80 -16,51 -22,73 -52,123 -31,52 4,-4 -25,37l-56 20c-1,-4 -2,-14 -3,-19l-17 -81 -97 127c11,-181 179,-512 288,-617 164,-159 64,-228 148,-128 -55,75 -56,115 -62,210zm1090 -1195l-31 -152c90,-40 117,-14 156,67 -65,41 -11,-34 -82,27 -47,41 -7,10 -43,58z"/>
  <path class="fil0" d="M41621 40581c107,64 41,-57 82,159 97,-150 89,-140 432,-166 -7,-7 -17,-17 -22,-22l-129 -99 65 -157c147,32 54,0 132,63 76,62 52,49 107,115 2,-8 5,-20 6,-24 0,-3 4,-17 5,-22l-9 -76c-1,-8 -13,-13 -12,-21l28 -20c7,3 104,39 113,45 64,39 145,229 233,75l73 -157c87,80 48,45 110,145l62 -54c130,-103 225,-36 347,-14 157,28 54,-26 203,-42 122,-13 69,38 240,9 88,-15 113,-29 227,-30 86,-190 161,-284 306,-107 102,-87 -48,-7 20,-102 96,-136 84,8 279,-3 180,-9 -26,-17 193,-37l-158 -154c211,-55 304,-102 464,-214l90 -62c6,-6 12,-15 17,-22 7,-9 22,-41 29,-50 55,-77 137,-101 209,-161 90,-77 28,-51 114,-148 114,-129 196,-91 211,-272l-168 127c-217,179 -131,235 -421,307l161 -95c2,-6 9,-5 14,-8 -12,-37 -19,19 -5,-50 50,-237 173,-56 444,-611l373 -618c67,-174 134,-342 226,-507l-122 376c-3,9 -7,19 -10,29l-97 217c-7,7 -39,42 -44,51 45,2 27,0 70,28 -59,351 -346,580 -352,588 -76,99 47,-106 -18,66l-36 74c-2,-6 -10,17 -15,26l215 -198c10,-13 40,-51 51,-65l68 -83c437,-660 734,-1779 826,-2546 282,-2367 -359,-4412 -2539,-5372 -666,-293 -777,-361 -1624,-409 -271,-16 -150,-108 -376,-135 -123,-15 -113,9 -236,-35 -296,-107 -803,-22 -1130,-7l-57 -72c-79,144 -1,81 -210,158 -335,122 -695,128 -881,209 -480,209 -1275,553 -1683,899 -69,59 -101,116 -161,177 -84,83 -159,96 -220,159 -50,51 -57,125 -137,198 -225,205 -150,139 -270,371l-265 147c118,-28 131,-87 226,-150 -42,120 -190,294 -277,398 -10,13 -89,96 -90,98l-61 130c-4,7 -10,16 -14,22 -4,6 -11,14 -15,20l-25 117c-47,76 -87,128 -117,186l-96 167c-3,-6 -13,12 -19,18l74 -186c3,-5 16,-7 19,-20 3,-12 13,-13 19,-19 -82,-64 -93,-26 -50,-138l-159 477 84 -4c128,-190 172,-421 357,-568 -86,189 -112,400 -144,474 -43,103 -122,174 -215,419 -144,378 -354,439 -318,1001l109 -192c64,111 7,55 51,256l-88 39c-134,81 -57,92 -156,123 0,-118 24,-272 25,-342 0,-172 2,-101 22,-272l-133 173c-54,-162 4,-213 35,-371 -133,357 -5,242 -53,579 -30,209 -43,407 -45,639l34 196c7,-8 17,-19 22,-24 4,-4 16,-16 21,-21 5,-5 14,-16 19,-20 21,-22 33,-35 45,-47 8,249 54,210 20,519 -17,159 -60,415 43,533 52,-165 -52,-523 65,-725 4,294 -35,636 32,874 37,136 151,626 116,695 -112,-43 -64,-37 -106,-179 -40,-132 -24,-119 -117,-188l30 322c1,-6 5,25 6,38l-113 -284c-79,145 99,525 172,672 3,-12 15,-57 21,-65 57,-89 -25,-29 37,-8l22 60c2,9 5,21 8,32l81 173c27,51 34,88 61,131 67,109 327,440 344,554l-150 -127c44,144 -18,11 66,130 395,561 288,386 834,851l616 509c264,187 1190,670 1563,685 195,8 533,-53 639,-10 83,-73 2,-44 98,-70l168 -30c-29,-142 -3,-12 -34,-142 145,34 34,-39 139,86l10 -158c74,95 -15,56 140,70 -2,1 -40,38 -40,46 -3,62 0,15 105,124l153 -48c-7,108 -10,85 32,132l217 -13c-63,-120 -55,-37 -100,-181 115,53 59,12 154,100l102 92 41 -129zm313 -243c-33,17 65,82 -112,-29l-180 -81c52,-40 48,-30 82,-103l189 119c37,167 54,10 21,94zm229 -1684l115 -186c-131,106 -266,313 -418,439 -8,-3 -20,-18 -24,-11l-47 -21c-14,-5 -23,-15 -77,-22 -235,120 -377,11 -589,43 -288,43 -305,20 -584,-120 -349,-177 -668,-297 -999,-503 -637,-397 -1049,-881 -1361,-1643 -120,-292 -108,-284 -105,-642 5,-775 -4,-936 497,-1751 412,-672 823,-1049 1578,-1426 433,-216 1380,-463 1828,-354 613,150 382,-24 838,290 335,229 236,85 614,511 238,268 383,577 507,1000 319,1091 142,2927 -502,3715 -318,389 -711,627 -791,708l-217 -59 23 -100c-112,56 -198,96 -251,165l-35 -33z"/>
  <path class="fil0" d="M33705 22496c-1,-1 68,-3 289,-276 256,-318 70,-184 429,-482l66 -105c64,-122 185,-256 202,-385 74,-577 408,-513 323,-1929 -60,-1006 -885,-2412 -1438,-3208 -468,-676 -1769,-1893 -2648,-2008 -1633,-215 -2168,-192 -3599,811 -447,313 -966,673 -1303,1029 -197,209 -346,389 -522,646 -154,225 -333,440 -479,686 -515,864 -774,2739 -441,3889 362,1252 1121,1992 2114,2548 876,491 1744,890 2652,421l267 -129c228,-119 265,-99 393,-252 235,-280 0,82 401,-234 6,-5 15,-13 22,-18l213 -79c556,-235 555,23 838,-323 200,5 120,1 171,31 30,-64 -5,-19 29,-121 95,49 72,51 172,83 5,-6 13,-24 15,-19 2,6 12,-17 15,-21l852 -2c117,-13 128,-40 204,-108l323 51c49,-83 49,-93 28,-188l233 78c73,-123 -139,68 175,-189 165,-135 145,-144 185,-256 98,-21 95,10 144,-22l102 -143c-183,131 -43,45 -183,90 -5,1 -17,3 -22,5 -5,2 -15,7 -20,10 -64,39 4,-6 -60,56 -69,66 -47,38 -96,107l-46 -44zm-4021 -756c-267,-14 -400,62 -648,-40 -470,-193 -852,-509 -1145,-908 -451,-611 -555,-1570 -295,-2193 243,-580 799,-1162 1255,-1482 556,-390 887,-635 1462,-560 237,31 335,-62 513,-103 682,1158 1740,2343 1594,3711 -40,369 -308,1063 -524,1244 -87,-8 -205,-47 -275,-70 -134,135 -193,209 -398,321 -392,213 -1038,109 -1539,80z"/>
  <path class="fil0" d="M40445 10844l0 96c191,-46 176,-132 391,-84 -30,-168 -23,-77 -1,-245l172 -3 -79 -106 140 21c7,-121 82,-108 102,-224 120,128 -38,13 165,59 1,-11 3,-33 5,-39 17,-48 14,-37 30,-63 196,55 207,-4 336,128 -150,-3 -100,-14 -234,-33l427 263c41,-79 25,-59 105,-71 7,-1 18,2 25,1 74,-11 16,10 68,-22 -123,-57 -97,-20 -178,-130l57 -18c52,3 32,2 92,35 259,142 28,249 132,162 3,-3 19,-9 26,-15l255 124c-86,-115 -87,-94 -149,-117 -58,-22 -16,5 -85,-34 105,-63 -15,-34 148,-38 29,0 138,8 171,11 270,28 600,2 852,-118 159,-76 315,-144 480,-235 85,-46 21,-6 105,-67 49,-36 63,-51 100,-80 116,-91 129,-44 184,-192 -94,-34 -162,-6 -249,60 -78,-38 158,-157 206,-200l258 -292c3,-5 10,-14 13,-19 3,-5 8,-14 10,-18 25,-57 -12,-54 58,-142 6,-6 14,-14 19,-21 5,-6 13,-13 18,-19 34,-41 153,-197 178,-342l-196 286c-87,125 -162,138 -283,225l76 27c3,1 12,4 18,8 -114,82 -100,75 -269,100 99,-169 619,-552 616,-1025 -4,6 -12,8 -14,20 -2,11 -11,15 -14,20l-175 305c-21,-27 -18,-18 -42,-65 -6,-13 -21,-52 -31,-72l224 -303 -83 -108 92 -101c5,63 -19,88 9,137 7,-4 19,-19 22,-14 21,49 216,-502 225,-545l-144 112 -137 -249 -85 196c-103,15 -34,-12 -120,19l-3 140c47,-34 24,-29 60,-41 59,-21 -5,-17 40,1l-57 185c-61,225 -23,-18 -177,157l-139 117c30,-137 46,-115 85,-205l87 -324c62,-191 109,-306 223,-457 104,-137 61,-297 112,-435 56,-151 1,-103 112,-165l-38 271c0,1 -53,34 -58,36 26,303 19,207 -40,469l169 -355c38,71 -26,167 -39,306 194,-181 125,-556 260,-778 102,-168 -72,80 29,-41l65 -61c-12,235 -37,277 -20,502 16,224 -174,655 -251,895 -52,163 -140,269 -147,431 43,-43 42,-57 74,-92l24 -23c85,-74 135,-352 169,-455 16,-48 39,-34 61,-125 41,-167 -32,-20 12,-133 19,-48 51,-39 64,-131 11,-80 -58,-153 47,-227l234 -634c7,297 -77,685 -164,939l-228 593c-28,92 -59,150 -19,230 8,-5 21,-20 24,-14 36,75 204,-480 206,-485 52,67 13,-6 35,69 20,71 -42,-38 20,91 7,-154 74,-222 75,-373 -14,51 -10,62 -30,99 -58,107 -36,60 -100,100 9,-226 135,-420 208,-636 3,-10 15,-39 18,-47 2,-6 6,-18 8,-23 1,-4 5,-15 7,-22l-32 -22c-2,0 -10,-5 -12,-6 -1,-1 -7,-4 -11,-6 31,-281 130,-425 165,-754l117 -600c43,-168 -18,-107 90,-152 86,156 25,194 20,349 -5,171 105,763 -72,894l-57 22c-163,51 125,-64 -49,10 -19,153 -49,154 -76,299 48,-31 12,-29 57,0 -72,119 -43,51 -33,175 8,100 -12,157 -32,243 80,-33 85,-59 137,-116 -42,646 -317,1176 -582,1743l122 -110c5,-7 9,-15 13,-22l436 -1144 117 -734c14,-111 19,-67 48,-153 162,-486 58,-526 55,-663 -11,-404 12,-814 -23,-1220 -14,-170 3,-412 -55,-562 -39,-99 -29,-75 -43,-198 -46,-412 -33,-377 -185,-667 -125,-236 -214,-606 -532,-1183 -449,-816 -955,-1264 -1823,-1597 -389,-149 -948,-304 -1426,-291 -49,-232 -147,-146 -267,-278 354,-20 615,100 890,-52 -213,-175 -851,-269 -1231,-251 -348,16 -1032,100 -1229,303 182,-39 218,-64 439,-88 142,-15 339,-43 451,47 -659,40 -961,98 -1507,313 -423,167 -904,335 -1244,571 -812,565 -1271,966 -1755,1909 -321,626 -697,2111 -649,2964 42,761 264,1507 524,2200 92,243 201,429 288,640l61 -112 37 115c-3,2 -14,0 -15,7 -2,6 -14,6 -16,7l-33 19c61,96 54,127 144,195l-32 -39c-14,-24 -35,1 -51,-160 155,97 379,572 536,742l450 434c45,35 129,39 211,58 -49,-63 -10,-3 -50,-49 -53,-61 -28,-7 -62,-93 179,78 139,67 270,158l-64 1c-2,1 -13,1 -15,2 -60,24 1,-20 -43,70l96 72c-147,-94 -70,-17 -28,-103 171,60 128,143 307,145l-164 -106c-46,-43 -11,-7 -49,-65 478,187 130,120 299,260 32,27 27,11 72,35 46,25 52,29 83,51l-161 -42c-56,-24 -115,-41 -179,-57 43,99 -10,47 102,101 45,22 105,40 159,50 149,28 303,8 605,145 214,98 142,63 193,152 157,3 300,-1 438,72l127 107c137,-57 51,-34 199,-37 246,-5 31,-19 195,41 81,-88 67,-81 230,-103 -33,-55 16,10 -38,-36 -5,-5 -16,-13 -22,-18l-53 -46c180,-46 91,-51 157,-81zm-2191 -686c133,35 54,44 256,112 130,45 181,42 216,147 -268,-117 -303,-50 -472,-259zm102 -45l-138 -201c-8,3 -21,1 -25,12l-81 27c-93,-77 61,21 4,-104l-137 55 -96 -84c-68,-57 -47,-20 -113,-111 35,-18 1,-29 79,-29 25,0 84,20 101,28 94,42 102,62 167,106l305 244c-4,1 -13,-2 -13,3l-53 54zm-905 -351c187,72 132,72 252,308 3,5 9,16 12,24 -163,-40 -96,-63 -212,-94 -1,-12 7,-113 5,-122l-57 -116zm6630 -504c34,-101 28,-95 127,-128 -45,101 -74,63 -127,128zm-968 -744l-126 72c-95,82 -196,177 -322,206l-41 10c-144,68 -149,121 -314,154 -94,18 -212,43 -290,70 -222,76 -127,14 -308,8 -115,-4 -174,39 -341,20 -84,-9 -241,-42 -318,-51 -232,-26 -448,-25 -678,-47 -248,-23 -102,-71 -683,-71 -289,0 -438,38 -575,-144 -157,-210 -215,-197 -293,-463 -29,26 -40,43 -110,70 -17,-133 7,-87 82,-113l-318 -801c-26,-93 0,-113 -44,-137l-53 -19c-42,-184 -81,-198 -112,-477 -6,-53 -40,-202 -60,-267 -34,-111 -49,-163 -110,-200 -4,162 119,461 10,607 -96,-223 -54,-409 -82,-635 -4,-31 -26,-128 -26,-128 -3,-36 5,-175 -6,-287 -128,-35 -135,91 -207,-24 -45,-73 0,-97 -118,-269l116 -117c-100,1 -108,51 -185,54l-23 -6c-33,116 -64,96 -10,206l71 -142c16,273 108,59 75,275 163,70 193,116 268,243l-29 10c-3,1 -14,4 -17,5l-87 54c89,131 -10,10 131,65l6 209c-4,4 -16,1 -18,9l-167 123c-4,5 -11,17 -14,21 -2,5 -8,15 -13,22l-65 -103c23,223 95,158 105,366 17,-29 7,-16 24,-66 3,-7 5,-19 7,-26l105 132c65,114 86,39 36,180 -8,-6 -19,-24 -23,-18 -3,6 -16,-15 -20,-19 -4,-5 -13,-15 -18,-21 -4,-5 -10,-16 -15,-21 -46,-53 -6,-30 -67,-66 34,121 159,284 102,384 -144,-70 -16,23 -79,-122 -56,-131 -35,60 -66,-153 -36,46 -26,40 -96,66 -29,-139 3,-51 -67,-106 47,-105 43,-40 68,-171 -6,-4 -62,-39 -62,-39 -6,-4 -15,-11 -21,-15 -6,-5 -15,-12 -21,-17l-39 -38c1,201 41,199 71,349l-99 -39c11,88 39,142 6,218l-136 -284c-60,-176 -18,-392 -78,-547 -92,182 -19,405 5,587 16,116 -17,141 32,224 71,-12 25,-2 52,-54l24 -49c49,116 -13,142 68,218l-1 245c-5,-6 -15,-25 -18,-19 -7,14 -30,-26 -41,-34 -38,-29 -48,-34 -81,-51 29,99 34,64 71,174 -91,-17 -123,-60 -152,-163 -92,-318 -111,-557 -131,-906l-36 -18c-2,-1 -13,-7 -14,-8 -2,-1 -10,-5 -15,-8l85 -246 75 69c97,-168 39,-51 139,-97 -1,-126 -25,-231 43,-336l35 -41c-25,-136 10,-394 -32,-480 -10,205 -33,335 -111,477 -19,-53 17,-45 -54,-102 -14,197 48,250 37,379 -15,177 -7,54 -53,112l-92 -387c-9,-25 -18,-9 -20,-62 -12,-271 112,-929 231,-1128 10,11 29,0 48,79 28,121 -95,282 -23,393 101,-138 66,-198 76,-411l100 -69c-53,-79 17,-222 67,-306 4,-7 12,-18 15,-24 4,-5 11,-16 16,-23 149,99 20,-7 103,139 34,-51 61,-101 81,-141 -151,-9 -64,24 -196,-9l-7 -212c0,-4 3,-15 5,-22l82 -37c4,11 109,28 -15,104 114,-47 108,-86 133,33 53,-92 -10,-101 -32,-204 -27,-128 57,-142 163,-95 -66,-97 -9,-138 34,-222l19 -46c6,-15 16,-48 24,-71l248 -513c79,-152 172,-289 296,-392l267 -182c72,-39 38,-16 100,-69 232,-196 1352,-622 1576,-646 191,-20 208,80 371,60 138,-17 22,32 104,-70 86,45 117,16 238,37 102,17 93,88 208,36l68 99c168,0 137,25 281,43 -8,-5 -21,-22 -24,-15l-81 -87c208,9 387,87 595,149l-126 -122c296,89 500,268 611,483 66,-49 67,-52 124,-112 -87,-50 -138,-89 -177,-195 231,171 129,148 206,376l-104 -77c81,206 266,439 374,655 43,-45 -3,-76 -35,-134l-22 -43c-35,-66 -59,-106 -76,-194 115,96 113,158 216,286 -42,-108 -60,-121 -77,-217l150 225c58,61 51,32 82,46 -20,-111 -107,-263 -164,-352l-209 -301c57,-60 55,-6 100,67 30,51 31,53 68,103 138,185 371,514 377,756 -72,-76 -93,-194 -172,-273 12,103 17,74 49,189 32,112 27,110 24,219 61,31 13,39 59,-29l60 -30c152,144 39,180 154,302 38,39 71,162 138,209l-46 -194c-2,-11 -4,-19 -6,-30 -10,-60 -8,-36 -10,-104l-65 34c63,-88 18,-10 75,-110l-52 21c-20,8 3,5 -62,25 66,-97 34,-36 8,-133 -24,-84 -38,-97 -44,-201l-66 -34c-54,-495 -451,-736 -594,-1066 251,169 573,722 654,1001l103 -70c82,-24 -51,-25 26,-2l113 409c110,339 269,1089 247,1385 -41,-36 -25,-15 -66,-60 -17,-19 -22,-30 -32,-45l-14 229c-109,-32 -43,-6 -72,2 112,83 70,83 71,272 -176,68 135,-6 -36,-1l-118 90c-4,4 -13,13 -19,20 -30,-149 -15,-440 63,-594 -157,-120 -67,278 -183,404l5 -380c-17,179 -49,821 14,985 66,168 -34,149 30,260 4,-52 22,-135 23,-140 9,-63 8,-101 10,-164 4,-155 22,-223 37,-350 147,64 82,-90 122,132l55 -197c20,67 34,146 57,199 -6,-213 -23,-476 32,-651l48 180c-4,69 -18,118 -22,206 -9,200 -11,250 40,403 15,-162 -15,-368 73,-513 4,-7 12,-14 16,-19 81,-116 56,-201 24,-345 -80,-368 -203,-62 -168,-792 -126,-81 -52,-246 -77,-395 -27,-163 -75,-341 -20,-455l244 396c101,266 239,86 302,967l46 21c142,49 -61,-39 45,14 60,248 47,555 76,824l91 -166c6,304 96,547 32,840 -23,107 -34,79 -65,132 -63,106 -82,175 -93,322 6,-9 24,-37 28,-43l46 -65c-9,140 -36,189 -76,280l-19 -183c-26,-150 -11,-270 30,-427 25,-99 18,9 23,-84 9,-184 12,-33 -31,-93 -56,108 -54,330 -98,450 -57,-83 -22,-224 19,-315 -115,-54 -17,113 -117,-59l-44 202c-69,-29 -122,43 -25,-207 -69,78 -138,432 -162,537l-21 -301c-213,19 -39,9 -111,-30 -89,162 -33,82 -120,132 -29,138 -80,229 -101,391 -14,102 5,123 -14,226 -25,134 -29,-74 -28,107 0,180 5,53 36,102 -9,-191 55,-270 78,-483l152 -129c-4,104 -36,162 -60,234 -17,50 -20,102 -31,133l-305 509c40,18 31,7 53,16 3,1 14,6 17,7l-1 291c5,3 28,15 38,20l-14 69c-45,194 -143,321 -308,428 43,-91 22,-108 7,-216 -151,154 -165,360 -270,444 34,-171 99,-230 127,-366l-240 274c23,-166 101,-332 147,-488l-229 504 85 17c-20,114 -59,147 -102,206l-40 -30zm-4757 91c-83,-93 -65,-116 -115,-229 109,58 -28,10 115,69l21 -58c36,-61 -81,30 29,-31 3,6 4,10 5,19l61 103c-36,34 -30,28 -56,57 -4,5 -11,14 -16,19l-44 51zm5406 47c8,-146 32,-190 114,-282 -15,100 -18,88 -24,170 -7,100 25,71 -90,112zm-5306 -421c78,53 83,58 143,119 102,103 43,13 104,159 -26,58 -35,38 -23,129 -122,-86 -141,-119 -224,-240 119,26 89,17 168,150l-6 -96c-164,-271 -88,12 -162,-221zm6035 244c30,-124 15,-97 92,-167 -2,90 1,148 -92,167zm-998 27c-48,-97 60,-215 121,-304 29,161 31,80 -121,304zm-5767 -564c70,201 77,128 82,331 -51,-39 -94,-57 -144,-92l-90 -79c-7,-5 -17,-15 -22,-20 -5,-5 -15,-14 -22,-21 94,-32 48,64 66,-105 45,54 37,74 100,99 -40,-136 -93,-114 30,-113zm6433 95c-195,-190 32,-307 108,-454 57,-110 -5,-78 117,-167 -1,5 -24,135 -26,140 -22,61 -19,42 -39,70 -4,6 -13,11 -17,17l-101 212c-44,97 -48,71 -42,182zm-6248 -493c87,62 59,40 108,152 -166,7 -198,-14 -108,-152zm-103 -270c0,0 84,-70 0,86 -73,-108 -56,-46 0,-86zm30 -723c9,5 22,5 25,18l60 54c1,1 6,1 7,1 42,13 55,-51 90,111 -136,-30 -156,-38 -182,-184zm-423 -2258c19,-131 -12,-82 85,-173 43,63 42,51 36,179 79,-33 11,-39 73,9 -158,163 -58,52 -139,278l-33 -42c-53,-65 -2,-105 -18,-14 -113,47 -47,57 -155,115 6,-258 49,-186 113,-206l-42 -204c96,197 27,77 80,58zm468 -924c28,127 111,251 -4,355 -124,114 -79,-15 -165,21 -52,22 -35,113 -35,179 204,115 -17,-97 76,25 34,45 17,73 -15,124 -83,-34 -32,-9 -72,-47l-52 48c-47,-47 -54,-28 -69,-106 -10,235 7,67 -53,137 -4,-216 102,-570 289,-668 -16,87 -24,76 -30,152 -16,192 0,82 21,117 59,-110 128,-142 74,-204l-44 -24 79 -109z"/>
  <path class="fil0" d="M21160 7247c-11,189 -82,231 -201,305l201 -305zm-5100 1007c-1199,-488 -701,-142 -1599,-982 -232,-217 -329,-616 -342,-964 -9,-214 5,-425 21,-603 25,-286 -141,-966 348,-1519 369,-417 929,-930 1466,-1116 526,-182 785,-755 1339,-450 568,312 680,351 1021,884 983,1532 -284,3818 -501,3922 -48,23 -481,85 -572,106 -578,132 -1034,638 -1181,722zm126 1640c186,79 328,255 635,221 66,-7 594,-280 1013,-254 132,9 147,65 298,116 379,128 610,-85 809,39 266,167 368,47 613,-90 659,-367 209,-205 530,-484 339,-295 449,-760 610,-864 408,-261 318,-10 228,-790 271,-220 447,-740 434,-951 -12,-222 45,-185 62,-404 -141,-59 157,56 -58,-14l-71 -28c57,-752 411,-681 172,-1217 -206,-461 -44,-76 -145,-533l-381 -1015c-110,-258 -165,-373 -305,-582 -462,-690 -546,-885 -1280,-1506 -695,-588 -1820,-895 -2750,-730 -770,136 -2636,973 -3020,1539 -228,334 -4,93 -392,538 -780,898 -926,1250 -1119,2510 -52,342 -56,1504 17,1802l132 758c57,497 346,820 767,1044 213,114 96,64 236,232 58,71 152,158 240,219 354,244 664,522 1171,648 316,78 520,64 820,-7 478,-114 378,98 734,-197z"/>
  <path class="fil0" d="M3582 24574l-125 34c242,9 219,-185 503,3l178 -85c192,9 79,7 277,-18l-98 136 275 -69 -152 -103c231,-71 69,-58 302,3l462 -377c212,108 375,-46 570,-98 31,-9 291,10 112,-155l116 -37 78 -4c336,-16 130,-106 459,-124 4,123 -6,131 -44,212l178 32c-43,153 20,241 68,307l35 51c2,3 6,15 8,19l100 134c226,-23 189,78 463,-10 319,-103 603,97 776,-218 74,-134 -70,-45 140,-129 80,-33 145,-50 207,-80 36,-324 -77,-7 -7,-250 148,37 113,-71 167,210 36,190 328,186 510,118 38,-305 -126,-380 72,-593 175,-188 216,-125 371,-427 160,-312 29,-962 78,-1442 -89,-117 -94,-111 -73,-318 17,-170 -52,-403 -89,-501 -75,-197 -18,-318 -88,-499l-91 193 -91 -751c-2,-11 -6,-21 -8,-32 -3,-11 -7,-20 -10,-32 -3,-12 -7,-21 -10,-33 -28,-129 -20,-197 -20,-337l-69 0c20,-235 -55,-234 -123,-431 -39,-113 -24,-82 -82,-158l0 276 -427 -1374c-61,-139 -77,-79 -163,-212 -269,-415 -539,-894 -918,-1220 -973,-837 -1751,-1187 -3171,-794 -570,158 -1575,576 -2008,888l-393 321c-757,673 -1047,1197 -1390,2173 -470,1331 -633,2209 -125,3576 199,534 615,1548 1195,1747 4,-12 14,-31 17,-34 1,-2 9,-11 10,-12 3,-4 17,-12 20,-17l16 -39c69,-223 -54,85 16,-62l146 128c160,96 145,-79 175,180 44,-97 2,-64 89,-91 9,8 22,9 26,24 25,80 253,150 317,178 10,4 22,7 31,11 9,5 21,9 29,13 60,33 41,29 71,55 -268,-18 -94,-69 -346,-92l200 124c126,57 134,67 256,86 -100,-78 -49,-33 -110,-118l376 71c-222,-107 -423,-112 -573,-278l467 148c234,96 206,99 512,119l44 288c19,-164 12,-37 72,-108l130 121c-91,-134 -67,-45 -116,-213 61,-10 93,-28 200,-4zm4011 -2202c45,-135 27,-121 165,-163 -40,146 -32,124 -165,163zm843 206c0,0 108,-431 212,-541l42 173c124,-53 39,85 123,-144 61,-167 -29,-66 87,-187 66,149 -162,639 -464,699zm-926 -1090l-172 91c32,-103 58,-196 86,-302l73 -217c6,-10 14,-21 20,-29 7,-10 19,-22 24,-30 6,-8 18,-20 26,-30 33,309 33,234 -57,517zm1334 -463c0,-257 8,-68 67,-141 103,287 16,227 -11,271 -17,-24 -56,63 -56,-130zm-1247 -1263c210,68 -41,16 160,126 -22,-208 -42,45 -47,-320 -86,131 -22,49 -77,30 -24,-115 -53,-217 -77,-341 26,31 11,-16 60,75l47 151c1,-5 4,16 7,24 -15,-377 -88,-586 -84,-951 -25,22 -48,42 -73,70l-41 48c-4,6 -19,33 -22,26 -4,-7 -16,18 -28,28l-48 -345c-42,60 -22,49 -107,81l68 -168c-99,-94 -77,-89 -117,-210 -45,-130 -38,-89 -103,-221l-58 134c-22,-214 -84,-138 37,-251l192 195c-4,-14 -22,-70 -27,-83l-153 -437c102,94 106,176 154,281 104,227 153,161 99,417 158,63 172,143 244,257 158,251 141,289 220,748 61,-174 -49,-98 25,-240 156,264 6,495 202,788 -10,-250 12,-425 -35,-622l75 -42c-53,-111 -39,-101 -45,-251l15 -221c29,48 25,29 60,116 165,413 -3,277 3,507 35,-52 -4,-55 142,-69 2,152 21,68 -42,128 -24,23 -45,-2 -59,0l109 343c7,102 -19,655 18,1167l60 -245 87 256c115,-189 -2,-926 10,-1179 260,354 138,672 217,1155 86,527 -95,811 -106,1228 -21,-39 -17,-6 -31,-84 -41,-233 -2,-468 -53,-545 -55,148 -24,161 -116,292 -1,-159 41,-327 -3,-413 -92,-204 -89,2 -212,-287 -101,-236 -128,-396 -138,-722 -100,157 -72,121 -41,285 -165,-26 -34,-48 -156,13l-59 -100c-19,65 3,14 -31,91 -2,6 -15,30 -17,24 -2,-6 -13,16 -19,23 -6,-302 26,-191 -46,-371 -53,-135 -38,-220 -40,-389zm-5299 -799c-68,-142 -7,-256 93,-376 -7,183 -24,257 -93,376zm308 -715c20,-186 47,-166 127,-284l164 -255c118,-215 61,-37 222,-196 135,-133 35,-151 238,-181 -79,298 -198,24 -333,464 -158,41 -126,-54 -241,179 -74,151 -57,184 -177,273zm4123 -484c79,95 163,177 106,312 -76,-86 -104,-155 -106,-312zm-2531 -596c-37,44 -168,25 -235,38l-331 189c-128,150 32,123 -229,146 50,-150 90,-142 214,-202l-94 -174c228,-8 31,52 215,-83 125,-92 243,-107 394,-74 41,9 61,20 69,24 1,0 56,35 79,46l36 -50c6,-5 16,-16 24,-21l324 -54c142,24 -17,-40 105,66 -420,25 -361,79 -406,160 185,-101 115,-57 459,-67 230,-6 367,-22 508,-101 148,54 50,29 145,66 157,63 184,76 336,272 4,-10 8,-25 11,-31 2,-6 9,-24 12,-30 3,-7 10,-23 13,-29l29 -50c357,261 788,1050 881,1548 102,-38 22,-45 119,5 -7,129 -29,106 -26,169 7,168 -5,-26 51,150 41,128 48,199 -10,307l114 141c35,72 28,85 41,168l35 -66c4,-11 8,-24 12,-35l35 -124c3,144 40,246 36,327 -2,54 -29,83 -28,178 4,272 -16,34 42,138 104,-151 10,-161 78,-302l41 828c6,-10 24,-46 30,-57 107,-215 30,-695 -12,-902l-130 -583c97,148 77,163 134,359 50,171 41,290 80,424 55,186 53,-74 42,151 -14,314 48,268 26,658 -88,-30 -70,-22 -118,-82l-92 492c-44,230 -49,39 -15,244 -131,6 -70,-54 -336,209 64,118 48,8 44,173 -945,133 -411,284 -1027,521 -813,314 -293,-16 -992,185 -122,35 -223,12 -357,20 -10,4 -346,223 -462,383 -1136,-215 -1179,-1343 -1476,-1540 -15,-216 -27,-361 -52,-562 -24,-198 -77,-780 -27,-966l258 -1252c69,-185 84,-231 191,-357 6,-7 13,-16 19,-23 5,-6 13,-17 18,-23 170,-203 130,-196 233,-218l-37 -261c317,52 368,-38 453,-169 68,68 100,119 236,-28 182,-197 206,-170 270,-269zm-51 -216c28,-226 122,-213 315,-176l-155 122c-79,36 -72,31 -160,54zm346 -211c-109,-68 -56,-75 -56,-75l365 15c-74,136 60,80 -131,105l-178 -45z"/>
  <path class="fil0" d="M33414 41637c-9,-1 -27,-2 -30,-2l-30 -8c-12,-23 -6,14 -29,-64 -42,-141 -1,-104 6,-121l110 40c42,35 54,44 88,76 -35,-99 -89,-209 -181,-222 -149,-19 -107,-7 -256,112 21,165 70,104 94,223l-206 38c-8,10 -25,40 -26,35 -3,-5 -10,13 -13,16l216 128c-51,-73 -23,-16 -21,-110 116,32 90,8 190,-97l88 -44z"/>
  <path class="fil0" d="M26329 38963c-55,-98 -8,55 -3,-78 0,-4 1,-6 0,-9 -215,145 -564,473 -600,747 70,-51 24,-26 82,-83l122 -105c33,-37 14,-15 37,-48 45,-66 21,-23 48,-93 95,22 70,2 81,-3 2,-5 3,-12 4,-15l45 -101c125,-136 175,-123 256,-247l-72 35z"/>
  <path class="fil0" d="M7768 40745c62,129 120,112 244,182 146,82 39,30 72,101 27,56 46,46 102,44 -8,-5 -29,-23 -39,-36l-110 -169c170,-221 110,-48 240,-152 -18,-41 13,-46 -132,-131l-175 -58c-5,3 -15,7 -21,10 -13,6 -42,26 -47,17 -4,-7 -17,6 -30,10l14 128 -118 54z"/>
  <path class="fil0" d="M43879 6250c-59,17 25,91 -58,-48 -2,-4 -7,-16 -12,-24 -54,388 45,206 -51,396 -55,109 -151,224 -175,338l105 -135c3,-5 11,-15 17,-22l66 -64 75 131c30,-80 -56,2 40,-42l-31 -184c2,6 -1,50 -58,29 61,-162 31,12 71,-171 85,-391 62,-190 118,-369 55,-179 47,-87 -50,-148l-57 313z"/>
  <path class="fil0" d="M1908 40196c-95,-100 -61,-48 -71,-199 -143,14 -106,-115 -53,151 19,95 -9,146 -41,218l-34 -52c-31,-78 3,29 -17,-57l-14 -131c-1,-7 -2,-16 -2,-21l-8 -61c-82,47 -49,-36 -86,305l63 8c5,1 15,1 20,2 64,16 22,-3 64,40 66,-100 37,-33 103,-94 94,-87 13,-2 76,-109z"/>
  <path class="fil0" d="M13266 37828c2,0 24,-129 138,89 71,136 59,153 151,215 -39,-163 -227,-251 -304,-555 -45,-177 -173,-464 -188,-591 14,401 110,233 132,548 -138,-114 -117,-246 -242,-440 54,297 189,520 313,734z"/>
  <path class="fil0" d="M7814 39300c33,-67 -7,-70 -54,-128l-265 -403c-33,-38 -27,-27 -60,-54 -4,116 -34,142 2,204 27,48 36,37 75,63 179,122 -5,71 196,208 105,71 49,-10 106,110z"/>
  <path class="fil0" d="M44088 10114l89 -35c8,-4 18,-8 26,-12l398 -313c6,-5 14,-11 19,-16l166 -261c-217,244 -273,246 -437,401l-52 50c-72,58 53,-38 -40,29 -245,175 -143,80 -169,157z"/>
  <path class="fil0" d="M2467 38709c4,-4 12,-10 17,-14 85,-76 117,-157 178,-241 69,-95 97,-59 6,-146l65 -116c-103,73 -129,109 -204,252 52,-54 97,-77 141,-104 -35,143 -32,9 -135,194 -43,79 -74,119 -107,202l39 -27z"/>
  <path class="fil0" d="M44521 4438c27,-46 31,16 34,-134 6,-297 -17,-332 -152,-331 0,42 92,414 118,465z"/>
  <path class="fil0" d="M6489 38397c48,181 175,282 239,429 46,108 15,137 105,238l126 92c-4,-5 -9,-12 -12,-18l-68 -129c-22,-41 -44,-79 -67,-116 -50,-84 -11,-22 -58,-83 -105,-138 -172,-268 -265,-413z"/>
  <path class="fil0" d="M2120 40191c41,-69 41,-8 18,-99l-42 -107c-113,177 -46,-1 -179,120l54 31c-4,94 -29,156 -8,203l97 -267 60 119z"/>
  <path class="fil0" d="M44361 26464c29,-51 45,-118 63,-157l-108 -265c-19,100 -30,346 45,422z"/>
  <path class="fil0" d="M33559 41363c104,129 201,183 303,246 -18,-98 -26,-74 -51,-99l-144 -104c-57,-28 -49,-21 -108,-43z"/>
  <path class="fil0" d="M44729 5229c2,-57 10,-128 10,-182 -1,-135 -7,-121 -47,-179 -33,72 -57,205 -31,282 37,107 29,42 68,79z"/>
  <path class="fil0" d="M10191 40758c69,-36 160,28 179,-94l-96 -183c21,84 43,153 49,234 -83,-15 -75,38 -109,-118l-23 161z"/>
  <path class="fil0" d="M13253 25599c158,135 71,92 168,-166 -108,55 -71,55 -168,166z"/>
  <path class="fil0" d="M21098 40561c53,-10 64,-6 119,-39 75,-45 57,-50 83,-91 -130,-66 -140,17 -202,130z"/>
  <path class="fil0" d="M33501 29595c45,-43 52,-58 105,-97 77,-58 58,-9 96,-94 -144,26 -172,76 -201,191z"/>
  <path class="fil0" d="M19676 13757c77,-41 -8,53 74,-50 49,-62 21,-25 51,-105 -163,35 -161,18 -125,155z"/>
  <path class="fil0" d="M7965 39294c44,54 64,100 118,151 -78,-188 -97,-196 -256,-309 38,45 102,113 138,158z"/>
  <path class="fil0" d="M7493 39743c-31,-96 -271,-451 -334,-513l334 513z"/>
  <path class="fil0" d="M32442 713c170,-77 9,-27 129,22l25 -52c-102,-87 -30,69 -119,-69 -30,37 -38,28 -35,99z"/>
  <path class="fil0" d="M7949 38983c32,90 113,218 210,270 -45,-105 -40,-47 -110,-136 -45,-57 -49,-81 -100,-134z"/>
  <path class="fil0" d="M15517 33198c20,-8 82,-35 91,-40 66,-38 16,-2 60,-49 -70,-39 -118,-5 -151,89z"/>
  <path class="fil0" d="M33699 41197c47,78 36,138 102,93 -83,-77 8,-21 -102,-93z"/>
  <path class="fil0" d="M37949 5255c-2,138 146,9 38,-7 -5,-1 -38,-21 -38,7z"/>
  <path class="fil0" d="M44587 26520c-3,-89 73,-60 -66,-90 22,69 -14,4 66,90z"/>
  <path class="fil0" d="M41162 40874c22,19 -15,30 88,72 -57,-124 -47,-60 -88,-72z"/>
  <path class="fil0" d="M44506 26101c6,71 51,26 41,-1 -10,-26 -50,-94 -41,1z"/>
  <path class="fil0" d="M42825 10814l105 10c-50,-34 -69,-70 -105,-10z"/>
  <path class="fil0" d="M25899 41813c24,53 30,46 24,9 0,0 -45,-53 -24,-9z"/>
  <polygon class="fil0" points="8261,12159 8232,12032 "/>
 </g>
</svg>
